<?xml version="1.0" encoding="UTF-8"?>
<svg id="Outline" xmlns="http://www.w3.org/2000/svg" version="1.1" viewBox="0 0 512 512">
  <!-- Generator: Adobe Illustrator 29.5.1, SVG Export Plug-In . SVG Version: 2.1.0 Build 141)  -->
  <defs>
    <style>
      .st0 {
        fill: #fff;
      }

      .st1 {
        fill: #1e2939;
      }
    </style>
  </defs>
  <path class="st1" d="M477.82,193.31c.49-3.19.74-6.41.75-9.64-.03-31.63-23.44-58.24-54.5-61.94,5.61-34.04-17.11-66.24-50.76-71.91-2.61-.44-5.24-.71-7.89-.81-14.3-31.3-50.98-44.94-81.91-30.47-11.53,5.39-21.14,14.25-27.5,25.37-17.08-29.84-54.83-40.02-84.33-22.75-11,6.44-19.77,16.17-25.1,27.85-34.09,1.27-60.71,30.26-59.45,64.74.1,2.67.36,5.34.8,7.98-31.06,3.7-54.47,30.31-54.5,61.94,0,3.23.26,6.45.75,9.64-22.81,22.47-24.9,58.83-4.81,83.82-9,12.18-13.84,26.99-13.79,42.19.09,25.87,13.96,49.67,36.29,62.28,3.56,31.14,26.71,56.32,57.15,62.17,10.55,33.14,41.07,55.57,75.48,55.47,29.76.73,57.41-15.52,71.52-42.04,21.61,39.42,70.72,53.66,109.69,31.81,17.57-9.85,30.88-25.99,37.31-45.24,30.44-5.85,53.6-31.03,57.15-62.17,22.33-12.61,36.2-36.41,36.29-62.28.04-15.19-4.79-29.98-13.77-42.16,20.09-24.98,18-61.35-4.81-83.82l-.04-.03Z"/>
  <path class="st0" d="M487.96,191.19c.51-3.3.77-6.63.78-9.97-.03-32.7-24.52-60.21-56.99-64.03,5.87-35.19-17.9-68.47-53.08-74.34-2.73-.46-5.48-.73-8.25-.84-14.96-32.35-53.31-46.46-85.66-31.5-12.06,5.57-22.1,14.73-28.76,26.23-17.86-30.85-57.34-41.37-88.18-23.52-11.51,6.66-20.68,16.72-26.25,28.79-35.65,1.31-63.48,31.28-62.17,66.93.1,2.76.38,5.52.84,8.25-32.48,3.82-56.96,31.33-56.99,64.03,0,3.34.27,6.67.78,9.97C.15,214.41-2.03,252.01,18.98,277.83c-9.41,12.59-14.47,27.9-14.42,43.62.09,26.74,14.6,51.35,37.95,64.38,3.72,32.19,27.93,58.22,59.77,64.27,11.03,34.25,42.95,57.44,78.93,57.34,31.12.76,60.03-16.04,74.79-43.46,22.59,40.75,73.95,55.47,114.7,32.88,18.37-10.19,32.29-26.86,39.02-46.77,31.83-6.04,56.05-32.08,59.77-64.27,23.35-13.03,37.86-37.64,37.95-64.38.05-15.7-5.01-31-14.4-43.58,21.01-25.83,18.83-63.42-5.03-86.64l-.04-.03ZM181.21,490.68c-30.4.1-56.92-20.59-64.22-50.1-.85-3.42-3.75-5.94-7.25-6.31-27.95-3.05-49.53-25.99-50.86-54.08-.12-3.12-1.98-5.92-4.8-7.25-20.06-9.27-32.86-29.39-32.76-51.49-.07-14.17,5.28-27.84,14.94-38.21,3.16-3.38,2.98-8.68-.4-11.85,0,0-.02-.01-.02-.02-18.85-18.13-19.43-48.11-1.3-66.96,1.23-1.28,2.53-2.48,3.89-3.61,2.44-1.99,3.56-5.18,2.89-8.26-.85-3.71-1.29-7.51-1.32-11.31.04-26.34,21.38-47.67,47.71-47.71.66-.03,1.32,0,1.97.08,4.56.78,8.89-2.29,9.67-6.86.25-1.49.1-3.03-.45-4.44-1.91-5.07-2.86-10.44-2.8-15.86.04-26.33,21.37-47.67,47.71-47.71.68-.03,1.36,0,2.04.08,4.03.65,7.94-1.7,9.26-5.57,6.57-19.12,24.57-31.94,44.79-31.91,24.44-.11,45.03,18.24,47.71,42.53v367.82c-1.68,33.64-30.17,58.99-66.4,58.99ZM475.72,283.24c9.66,10.37,15.01,24.04,14.94,38.21.1,22.1-12.7,42.22-32.76,51.49-2.83,1.33-4.68,4.13-4.8,7.25-1.33,28.09-22.9,51.03-50.86,54.08-3.5.37-6.4,2.89-7.25,6.31-7.3,29.51-33.82,50.2-64.22,50.1-36.23,0-64.73-25.34-66.4-58.99v-41.59h33.52c4.63,0,8.38,3.75,8.38,8.38v9.92c-13.09,4.63-19.95,18.99-15.32,32.09,4.63,13.09,18.99,19.95,32.09,15.32,13.09-4.63,19.95-18.99,15.32-32.09-2.53-7.16-8.16-12.79-15.32-15.32v-9.92c0-13.89-11.26-25.14-25.14-25.14h-33.52v-33.52h85.35c4.63,13.09,18.99,19.95,32.09,15.32,13.09-4.63,19.95-18.99,15.32-32.09-4.63-13.09-18.99-19.95-32.09-15.32-7.16,2.53-12.79,8.16-15.32,15.32h-85.35v-33.52h75.43c4.63,0,8.38-3.75,8.38-8.38s-3.75-8.38-8.38-8.38h-75.43v-33.52h127.26c4.63,13.09,18.99,19.95,32.09,15.32,13.09-4.63,19.95-18.99,15.32-32.09-4.63-13.09-18.99-19.95-32.09-15.32-7.16,2.53-12.79,8.16-15.32,15.32h-127.26v-33.52h85.35c4.63,13.09,18.99,19.95,32.09,15.32,13.09-4.63,19.95-18.99,15.32-32.09-4.63-13.09-18.99-19.95-32.09-15.32-7.16,2.53-12.79,8.16-15.32,15.32h-85.35v-33.52h33.52c13.89,0,25.14-11.26,25.14-25.14v-9.92c13.09-4.63,19.95-18.99,15.32-32.09-4.63-13.09-18.99-19.95-32.09-15.32-13.09,4.63-19.95,18.99-15.32,32.09,2.53,7.16,8.16,12.79,15.32,15.32v9.92c0,4.63-3.75,8.38-8.38,8.38h-33.52v-58.04c2.68-24.29,23.26-42.65,47.71-42.53,20.22-.03,38.22,12.79,44.8,31.91,1.32,3.86,5.23,6.21,9.26,5.57.41-.06.83-.09,1.24-.08,26.49-.3,48.2,20.94,48.5,47.43,0,.1,0,.19,0,.29.06,5.41-.89,10.79-2.8,15.86-1.68,4.31.46,9.17,4.78,10.85,1.41.55,2.95.7,4.44.45.65-.09,1.31-.11,1.97-.08,26.34.03,47.68,21.37,47.71,47.71-.03,3.81-.47,7.6-1.32,11.31-.67,3.08.45,6.27,2.89,8.26,20.13,16.7,22.9,46.55,6.2,66.68-1.13,1.36-2.34,2.66-3.61,3.89-3.39,3.15-3.59,8.45-.44,11.84,0,0,.01.02.02.02h0ZM323.04,432.01c0,4.63-3.75,8.38-8.38,8.38s-8.38-3.75-8.38-8.38,3.75-8.38,8.38-8.38,8.38,3.75,8.38,8.38ZM364.95,331.44c0-4.63,3.75-8.38,8.38-8.38s8.38,3.75,8.38,8.38-3.75,8.38-8.38,8.38-8.38-3.75-8.38-8.38ZM406.85,230.87c0-4.63,3.75-8.38,8.38-8.38s8.38,3.75,8.38,8.38-3.75,8.38-8.38,8.38-8.38-3.75-8.38-8.38ZM364.95,180.58c0-4.63,3.75-8.38,8.38-8.38s8.38,3.75,8.38,8.38-3.75,8.38-8.38,8.38-8.38-3.75-8.38-8.38ZM306.28,80.01c0-4.63,3.75-8.38,8.38-8.38s8.38,3.75,8.38,8.38-3.75,8.38-8.38,8.38-8.38-3.75-8.38-8.38Z"/>
</svg>